<svg width="16" height="16" viewBox="0 0 16 16" fill="none" xmlns="http://www.w3.org/2000/svg">
<g id="akar-icons:linkedin-fill">
<path id="Vector" fill-rule="evenodd" clip-rule="evenodd" d="M6.28604 5.97901H8.76204V7.21234C9.11871 6.50301 10.0334 5.86567 11.4074 5.86567C14.0414 5.86567 14.6667 7.27767 14.6667 9.86834V14.6663H12V10.4583C12 8.98301 11.6434 8.15101 10.7354 8.15101C9.47604 8.15101 8.95271 9.04767 8.95271 10.4577V14.6663H6.28604V5.97901ZM1.71337 14.553H4.38004V5.86567H1.71337V14.553ZM4.76204 3.03301C4.76214 3.25652 4.71781 3.47783 4.63163 3.68407C4.54545 3.8903 4.41914 4.07735 4.26004 4.23434C3.93764 4.55476 3.50125 4.73411 3.04671 4.73301C2.59297 4.7327 2.15758 4.55381 1.83471 4.23501C1.67618 4.07748 1.5503 3.89022 1.46427 3.68396C1.37824 3.4777 1.33376 3.25649 1.33337 3.03301C1.33337 2.58167 1.51337 2.14967 1.83537 1.83101C2.15796 1.51178 2.59353 1.33281 3.04737 1.33301C3.50204 1.33301 3.93804 1.51234 4.26004 1.83101C4.58137 2.14967 4.76204 2.58167 4.76204 3.03301Z" fill="#1D72D2"/>
</g>
</svg>
