<svg width="16" height="16" viewBox="0 0 16 16" fill="none" xmlns="http://www.w3.org/2000/svg">
<g id="akar-icons:twitter-fill">
<path id="Vector" d="M15.762 3.29171C15.2053 3.53838 14.6073 3.70504 13.9787 3.78038C14.6273 3.39224 15.1126 2.78135 15.344 2.06171C14.7346 2.4237 14.0676 2.67851 13.372 2.81504C12.9043 2.31562 12.2847 1.98459 11.6095 1.87336C10.9344 1.76212 10.2414 1.8769 9.63816 2.19988C9.03492 2.52285 8.55518 3.03595 8.27343 3.65951C7.99169 4.28307 7.92369 4.98221 8.08 5.64838C6.84512 5.58637 5.63708 5.26541 4.53428 4.70631C3.43148 4.14722 2.45856 3.36248 1.67866 2.40304C1.412 2.86304 1.25866 3.39638 1.25866 3.96438C1.25837 4.47571 1.38429 4.9792 1.62525 5.4302C1.86621 5.88119 2.21477 6.26574 2.64 6.54971C2.14685 6.53402 1.66458 6.40077 1.23333 6.16104V6.20104C1.23328 6.9182 1.48135 7.6133 1.93545 8.16837C2.38955 8.72345 3.02171 9.10433 3.72466 9.24638C3.26719 9.37019 2.78756 9.38842 2.322 9.29971C2.52033 9.91679 2.90666 10.4564 3.42691 10.843C3.94716 11.2296 4.57528 11.4438 5.22333 11.4557C4.12322 12.3193 2.76459 12.7878 1.366 12.7857C1.11825 12.7858 0.870715 12.7713 0.624664 12.7424C2.04432 13.6552 3.69689 14.1396 5.38467 14.1377C11.098 14.1377 14.2213 9.40571 14.2213 5.30171C14.2213 5.16838 14.218 5.03371 14.212 4.90038C14.8195 4.46103 15.3439 3.91697 15.7607 3.29371L15.762 3.29171Z" fill="#1D72D2"/>
</g>
</svg>
